<svg width="64" height="64" viewBox="0 0 64 64" fill="none" xmlns="http://www.w3.org/2000/svg">
<g clip-path="url(#clip0)">
<path d="M5.61638 17.7313C4.92397 15.1143 61.2646 17.6877 61.2646 17.6877L34.9327 52.212C34.9327 52.212 23.4119 39.3636 19.6187 34.9022C15.8255 30.4407 6.30878 20.3484 5.61638 17.7313Z" fill="#473AE9"/>
<path d="M6.62823 25.5878C5.68311 23.241 61.2648 17.6876 61.2648 17.6876L34.9329 52.2119C34.9329 52.2119 22.5455 41.1108 20.2511 38.6953C17.9566 36.2798 7.57336 27.9347 6.62823 25.5878Z" fill="#8E00C5"/>
<path d="M8.83803 34.2571C7.36336 32.5104 61.2652 17.688 61.2652 17.688L34.9333 52.2122C34.9333 52.2122 24.1536 45.9162 21.5157 43.7532C18.8778 41.5903 10.3127 36.0037 8.83803 34.2571Z" fill="#FF6E63"/>
<path d="M13.1349 43.7252C11.9053 41.7882 61.2645 17.6876 61.2645 17.6876L34.9326 52.2119C34.9326 52.2119 28.3491 50.469 24.3695 48.8232C19.8093 46.9373 14.3646 45.6622 13.1349 43.7252Z" fill="#FFA427"/>
</g>
<defs>
<clipPath id="clip0">
<rect width="64" height="64" fill="white"/>
</clipPath>
</defs>
</svg>
